<mxfile host="app.diagrams.net" modified="2023-06-09T23:29:30.097Z" agent="Mozilla/5.0 (Windows NT 10.0; Win64; x64) AppleWebKit/537.36 (KHTML, like Gecko) Chrome/114.0.0.0 Safari/537.36" etag="w7Qz2J1462sTrG2lLf0o" version="21.3.8" type="github">
  <diagram name="Page-1" id="c7488fd3-1785-93aa-aadb-54a6760d102a">
    <mxGraphModel dx="973" dy="463" grid="0" gridSize="10" guides="1" tooltips="1" connect="1" arrows="1" fold="1" page="1" pageScale="1" pageWidth="1100" pageHeight="850" background="none" math="0" shadow="0">
      <root>
        <mxCell id="0" />
        <mxCell id="1" parent="0" />
        <mxCell id="2b4e8129b02d487f-1" value="Power Platform ALM" style="swimlane;html=1;childLayout=stackLayout;horizontal=1;startSize=20;horizontalStack=0;rounded=0;shadow=0;labelBackgroundColor=none;strokeWidth=1;fontFamily=Verdana;fontSize=8;align=center;" parent="1" vertex="1">
          <mxGeometry x="208" y="11" width="554" height="617" as="geometry">
            <mxRectangle x="180" y="70" width="127" height="22" as="alternateBounds" />
          </mxGeometry>
        </mxCell>
        <mxCell id="2b4e8129b02d487f-2" value="Developer 1" style="swimlane;html=1;startSize=20;horizontal=0;glass=0;" parent="2b4e8129b02d487f-1" vertex="1">
          <mxGeometry y="20" width="554" height="280" as="geometry" />
        </mxCell>
        <mxCell id="z2upylLzCHn0Cnhui9A_-1" value="Plugins&lt;br&gt;WebResources&lt;br&gt;CustomActivities" style="sketch=0;pointerEvents=1;shadow=0;dashed=0;html=1;strokeColor=none;fillColor=#505050;labelPosition=center;verticalLabelPosition=bottom;verticalAlign=top;outlineConnect=0;align=center;shape=mxgraph.office.devices.workstation_visual_studio;" vertex="1" parent="2b4e8129b02d487f-2">
          <mxGeometry x="81" y="27" width="53" height="59" as="geometry" />
        </mxCell>
        <mxCell id="z2upylLzCHn0Cnhui9A_-3" value="Git Repository" style="verticalLabelPosition=bottom;html=1;verticalAlign=top;align=center;strokeColor=none;fillColor=#00BEF2;shape=mxgraph.azure.git_repository;" vertex="1" parent="2b4e8129b02d487f-2">
          <mxGeometry x="425.97" y="183" width="50" height="50" as="geometry" />
        </mxCell>
        <mxCell id="z2upylLzCHn0Cnhui9A_-11" value="" style="shape=image;imageAspect=0;aspect=fixed;verticalLabelPosition=bottom;verticalAlign=top;image=data:image/png,iVBORw0KGgoAAAANSUhEUgAAAsIAAAGTCAMAAAAV9oQkAAAABGdBTUEAALGPC/xhBQAAAAFzUkdCAK7OHOkAAAGHdEVYdFJhdyBwcm9maWxlIHR5cGUgZXhpZgAKZXhpZgogICAgIDE3NAoKNDU3ODY5NjYwMDAwNDk0OTJhMDAwODAwMDAwMDA1MDAxYTAxMDUwMDAxMDAwMDAwNGEwMDAwMDAxYjAxMDUwMDAxMDAwMDAwCjUyMDAwMDAwMjgwMTAzMDAwMTAwMDAwMDAyMDAwMDAwMTMwMjAzMDAwMTAwMDAwMDAxMDAwMDAwNjk4NzA0MDAwMTAwMDAwMAo1YTAwMDAwMDAwMDAwMDAwMTNmY2ZmZmZiNjFiOGUwMzEzZmNmZmZmYjYxYjhlMDMwNjAwMDA5MDA3MDAwNDAwMDAwMDMwMzIKMzEzMDAxOTEwNzAwMDQwMDAwMDAwMTAyMDMwMDAwYTAwNzAwMDQwMDAwMDAzMDMxMzAzMDAxYTAwMzAwMDEwMDAwMDBmZmZmCjAwMDAwMmEwMDQwMDAxMDAwMDAwYzIwMjAwMDAwM2EwMDQwMDAxMDAwMDAwOTMwMTAwMDAwMDAwMDAwMAoD5vtfAAAACXBIWXMAAAsTAAALEwEAmpwYAAADAFBMVEX///8VIU8VIk39/v3///7///7+//8VIk7+/v7//v/9/f/+//77+vz+/v8UIU37/P3//f3///0XJU8ADj7+//z9//76+voUIUwVIVD8+/v9/P3z9foBD0D///oGEUWMkqwVH1IUIksMGUgAATP4+fr///sRH0sWIFATIk8MFkUACjwQHUsAACoABzsZKFMXJlMZJVD//v4AACYAADADEkETI00JF0YWI04TIUsAAS0HFUUTIkoSIE0WJFEHFEP8/v0FEED//v39///29vaiqbcVIkgYKVYpNFz9/fsVI1T+/vwUH00qMlUWIE3//f8PG0gYJ1n9/vgUI0fW19taY4Lo6ez8/Pr+//obKFIFE0MADT8ABDj6+fj5+/saKVrExs1yeIwAACCPk6vs7O4OH0TZ2t+5vMUiI1H9//9LVHYADDwuOWBiaYNHUXL//f/t7/IAAjUWI033+Pj6+/vP0dqVmq8OHEr7/P4lL1bl5uwBCjn7/PaGjKFpcIo5QGFdZH2KjZ3i4+XHytPg4ujf4OPr6+xETW0eKlMTH1Dx8fJ2fZTBw8qFip309fXDx9IDCDIuN1ydoK5OV3gSIlFmbIUmMVlZXnmmq7vb3eDT1dkBBzXy8/QcKFCwsr4TI0QaKV9NVHF7gZeZnrKoq7Y0PV8/SGkKDjUTHUjR0tchLVaYnKrm5uludInKzNMVJ1E4Q2a2ucOOkqMZJFQPHE6UmKl/hZy6vcmkp7PT1t6Kj6IVIko1P2SEiJq9wcwHDTwDBi1KUG2fpLKrrrkVI1kZIEtudZATHlfNztQiK1MXGThzeZF8gZINF0s9QVoXJUyAhJWztb5RWHTz9fi9v8d3fI9YYH4wO2EhJEQ/SG0NFkAKEjsmKks1OlmRlaSRlqdGS2OxtcIbK1ZUXHjZ3eQJDC7Lz9hrb4Q+RWRiaH0aHUICDEIEBifp6/AUJ0iMk6irsL4QGlMWKU4FD0hTXH0xNVIeJUsTGUAREzMtMUovNVhTV2wpL1AIFU5XXHD3+v0DAxLe6IaZAABSVUlEQVR42uydD2wT5xnG3zOez8aJg5ETHxauYuBKMkyCbbnB84wgJZ5jCImDsLsmGNBEpbFKJJiBWq9lVYWERjsPRQuQDrqJLmxQ2BYYbBaFrUhtswEZGxIiDGUWaB0UBlSUlQJi3zn/nAABkjjxieeRElt33/3x659eP9/7fXdHaklE6s7XlP/dL/fpYcv7t6F+bfu8pwftiHpOhei+VfSos6EHr6MBtqIBG913+kQpG6bGjOhB26YsRYDTF+Cu7Sg1IMn9dC2k+8NNvR83ZS11nyr17rA3LNTTonOP1H3EPh+wT4RTGqcelHo+KvU9AyLq/x1SaiT6INQvwqmbpp5V1wlR76fqiklKaFLb9N1F94dEgNMa4KTUvX/q7ve96t6+ty31a9O3fcpi9YNXP6T9IFbcd4CUM01ZrH6cY3Rv2xkV9UDH745b/6bq3pje1x4BTleA1Q8/IgRluoAvBIwhaNTxBcKQnBlGCCAYCQgCvhAEQfDDEAR8IQh+GIKAL/T0YQyQIXnTC4AheXfnkIMhmXthIAyhOwdBEAQhE0NPrxcGxJB8CQa9EARBEAShOwc91d05xAFCBoag0eQYIYCALwSNppmAnYDkTS8AhmAkIGhUUzFiAMkbXyAMydxIAOFHyZRlQhDgheUrpZ/98/vUGvZWqyWVtEipRFyAsRxks6lKDeYJPhWZQ6ZsjdJgyM0tLVUpRVFEcGAk5IKwT9Qv+fAPRFNqA6LBP4YRTEq9Xo/gIAPLBeEI0a7jdzevZPYhzzfOpmVGQqPRIDaZRDEwHgBhYgh/7dyFe5/8fs9KaYlf1CuVGk12NoKTOfhigHmAnpySVFlEB2/brc23TzE3MbY2GgiE9EqVCsHJEIJB7yMQVqlyiDb/JNa8ou5mx6ElbFnt81EzS8UIDiQLhEmlZV547m1X9U+v1Vjbv9px/nmigC+EggS6dHKRShtkCM93FBZxnjVN9jM/37GKclh2Rn8O+MrESGg7EZ5c+EL8hHPa59Mdp9ddZf26xRGTTSqtaUtVlCxPYLADFYmMlF7UqiQjMb+u8AW32+INN6ywxuYv/e16tm5CMGAWc7sRJiCMikQmSjTrpe6clIWLOIEzxusT3tl2+422j99ma0MBgzTQAY12RQIAD4Cw2Iuwjud5Bd9Qnr/vsPXIjbatSvJFxlBypA4JeLSzMOLwuAjzvI5rCbfManK1dvxwNWuQFw3p9aIIhmEk5IJwvcXt1hWHw5VW+83Gg8vzWJMJvpAZDI+qkUBV4rER5jhFWXXc4nQ6PeXXpttv3v2bZInH+gKiErMmRg1iAsJPZCQUSRnHFx+99u2mC6fXbZ4izWEL6YEwEJZHd47zlAscx/EVRqc3vOGwtelW28ZFrGFOULR1boLi2sgjDC/8JAjnlwuCwE2damSeuDx8dKL1sxuHFuaZSGn2q6U5mErMJB4FLww9gZHokULBcx5O9+xsR/N7by0kigQnmMZmq7QGIAxluBfuQphj742KGd6GZ2ocrR3nlrPWtXk+rTTFGBoNPww9aRbulG6eJxwutNovrtt8nsVR9PkXLEDY0J2TEcI8sxNCS0tlzHqm8cA7atKL4xZgtGjku3MIwxAQjpcZPcWeyolNsU9e/leEKK82qDaN0SJ2I9afQxIeIsJl1XHjzBJv4tnpjqbjbf9YSeRfHDGhSjyiNhgMDwVhi9tZIHA644wi4bA99vrvzq9i22nUWpSH0ZWTB8I8XyDkCwLH11+JT712ydH8+h/fJMqKBENJhjUY6xghMwENGmGO46TxOs7oPlFUtWFWzHHx5PeXM3BroyabRqNRaQ0GMAx8MzoLS1WJTpYVxpKE9xsO185123azrfxB35w5QBhmQgYI95GnuNK1rPU/B94mtTkQMGMO20jgC4SHD2Ed79lbUjnbceTsawemENVGAyKBYWRgWWVhnfuE991rNa7m47/44O9E5mjADyMBPywnhPl6S8FHR98tb14W+3TXFgnigB+BBL6yQrjek19e3sBXrnC0/+a/l4lyshBlSE4IJ4c73M4i7zdn1Uw+3bhpC8sUeRGYCUhOCMfLqt063d5E1TMu6+l/f7AoIj3oYNyCrlumYFI8lOkIJy+wS9aLi4ufc7h+9trGHDLROJNJy6QXcc0+/HDGI8xzXGeFbfwM3ZrZdbHbS5eMkWbEm1QsC9tsIHi48QXCaUKYQWwcn0hMqnG1f3poySqi7KyxyWkT0HAyDITTgXCKjEZPOL/GHuvYtUWaw0bZai0mEw8zwjAS6URYp+NKTtRv2Peiq7lj0yKirJycoA8Mw0jIB2EFx1m2VxdV5V+qiZ2+u+kVFu7na32I7PAaCSidRiJZY3Mby8NVZ+z2s0tfeoPt1peDuANj2SCsUHCCUBF3Wyyeo3fq7F+8/7EGD/xCd05eWZghzFvi7vj4ox/tW+G6cOMvPyZS5UWjprELNCom0qNQDIQzGuHudGzky8PewiP29l+ek24SH8jKM2kICA9LRQI1ifQiLN27qrNSrCgpSuw8sqz5T5veXEs0J4g7/wy9IAF6RywLdw4815co3IWvus58d+4iIumZzsknOmO4Y4gcIwYjh7BRV1JUPO3FupovGudeJrLVRgMGg18NhoeELxAeQYSZpdgw73qi+LDVdfvUS7vZMQLRgA+T4tGdkwfCXQUKzl1dX1xeaHWdPbU1oqYQLk0acncOYRgZhDnp7tqdF+1zM2bwkyZO/t97P9pD5FsVwXcAHywDhJMES7clVgj5gtE9PuGdVOdo79i/ei1RMJKTrSG9aDAYMIECGGcswl2VNV7BSTewUjgV3vC+2LL2kx9ejrBjmcbmhgKhkCEXDAPfzO3OpXTrkleKOp3CsRpr68kd7xBlBaMBvyFXIhjXJg2iSweNBsIz3SXeqjWH7Z+dffnqeuYm8iaYsrM1kqHAM3GBb+ZWJPoU2XTzuJbEiZi95lt/3fgdyU2YTONsSlxdBzMhG4RZH89TULB37yyX60bbr6aQVgwFzOIcGyazPQm+QHjUEE6W14SChr3Xq5/7fPrhf7ZtZcdcFQ3hNmzIwMOGsLkX4d6KwvCJkx43wwvzqq8kqo7VWVu/OreaJE/sx/wf+OHhR1iXHoQVioqKqRVut7EoMS1mP9O4bfcUIv04tRJ3hwe+wyC9ITc30oWw0anoeW7isCEsMVxRUcFxirIrVwry73zdcfHk1bVkygr6QiE9qUpVmMcGDUWq0tLcINHB+Y7CIrfFYhl+hrueXcdQtswc7y2eNrsu9uX729YTRWqjAT1D2GYDxNCQENYGpSzskLKwMw0M90gQOF287Hqi4VX7kVtte1ayn4Cgz28QxTlgGBq8mB9VdhkJL8uUTovbyfHpE1dfvT3ekn/J0fS9txaq2PHNTKKoB8Pww4MV+xUnqTt3q2aSd8NUId0ICyVl1fGWo9fuXJrcfPwH54n80ahf7GQYXwbwHSzCWUT7W++d+XVL/gbeYnHyaVUJz+uE4sT1dofr4t1dUpk4sjgYwjNngPHgEWYMEf35y3tHKndOLfc4LYp0ZmEFL+QLJc7q7duvh49Zl7U2bnuF/QbkBs0ibiY4EL4Y3hjIC5eWBkXlG/uPX1gW21f1f/bOPaat+4rj595Yti9gwMTY5lZO7RhjJzG4touM5ziAM1vXZnZsVzVRYF7IShZNlRLjNhVY3SYlm1jXxJscsYSs0PRBtLyUQJsUK4kb0URChSxhnSLyEKDmAXk3S0KeZb9rmoR1bUI8+O93/gAkrhDy/dxzv7/v75zf0RUreFLie51EU4twTMoj43EF+qliTlTb8q/ddcAN+1AaxjfjRwjG+D4d4XSbjfEF6JXrOz8fMZtPOoNF8RLS9Lj8d8o3OwgN+qKWy9Vuk6N93lxl283zx15gHTZfOeBxuBjjVLIwlytiGBrgrXPvXuiOFpa95v+bjuBJyJBarSYIqdU65cLCREjlcjlZMp9wBGMNNYneznOXAWQMnc33UIDLMH8IX4zwJD4nRPErZz7uN0f7TVa5lFSQarXbnUlIpcS0ru5082eaox91boc04DA0H7giXAz/A0s5jPCzPyaGfY9vfuVQU4VSW9YVLCoukZCKOBKtCnIaV3ekyWpt7Jlr7B7Y83Vyv04EuIgNI5xauHyRiAuAOffmv09FjQ09Dsc3CoUibrfbp9Wi4FUQ7cGuWWbtSNO+jQKAQB7twQhjQy0lhCtlMp84zAdqzQfHT5xtnrXaotFZpbxQnJxWn5ggKirkweAcs+HE8ODvWZuPxgjjSCXQ65sjRCsptJbKrz/2W7tZe1Lj7XLKp1cKI4TJuCJkimk0s6uMI8P/XAiQQdM47+B47qDFdNKg4AciMoC3aq/tuJmoifa0trbzMh8d0fO9Fs8pilA8brFIcoZ0PRdZh235z9lXAmYYm2opyK0sPutmIYYjYvS9ft/rd9pWzZ1ToNOZMjMfH7469QijKA6FSImpKNhYpY1eOHNuJc2hcWsdxvf5om9zBkrBKiEIBGlpfJerkgF4Ye+G+5e0MwushEbDI8l4PDlsjj2xZ2qVREzKdidJefESp/fIQUNb7+/O5QMtxIf+YIwnF5zc0lKUcz94pxZAXJ3nSRMIbLYZLvYcv2/r//TlzaiheXUwaFX4W1rcarUbISyXTm0iHk/vBM/tlupimnmFY2Nvr4GArHKFDd8djO8kCEYI5wFcfmf03uBlgOoAI+TabFxKyIgjiOLtg1t6TxqVZbGhoit+t9tNjse0LOxCX8QzHUOzjTW9h1YCIxOhfwPfH2ysTQ5hj76vs2bsZ3vWAMh8TPJUdoByXyQSBuDuPXx6VNvQc/1Il5WVE3Z/y7Q4xQRpOZrjjB3U3n77M/QoZVOUACP8BF+M8DMQptYtu1GlbPt8MB9c4fJyPTvkhe/y+XyVAOH8TftPnzVUXW91xmIaUmFvsfOmw2gjSzTeI1HD3UPoZcBkeChKj3eaMcKTRBjl3XXLHsyavUp5aul6dps3IFOJcnPRqs7FJL22V3eeGejXmsucrV55oySumA4ZUUIEvRfN3RvWfwtCJs/joSMRGa73eYQw1sPPRLjvatmvhxwHDdH3r6EkqIr4kBQVsLtkejqvWgxgO7B/oDvRXNbT5W0nMqdeC2fyXtJ1FCpPbUFaZmHEBRTNCIUyPN3g8XIOI/xMhF8sa7DkFGkatCOH3wgDRyUT5bK/9ng8FBIUbDFm7Z6BUUO058l+3RRVEo//GZNukdF8YbAOwpEAenT4M0CQh6cbYCHxHELi6qwlR49+Uzx/gTJx+kwfgDgsUrGVuxRHz0+jGRm6dN3GbfduG7RlRUM6niRzAn7k/wewiSwwDekaDCNf1uaDSpyRRoEwkGH7xbEMoPENwghPDmGq78UbF3OKLZaioa1mw4kdB1iIIz5aDyAq5XsEnMqAOA2gbucnD080KxsWORw6nsVvJ+RyIsXeJJKQWlE6V6sJe4vFG+wxmns/QRKGHXqbxvjWAfz0D0vDbFcfDozwMxBOzxXRHoTwrCU5BDuCtmhojsHw0ba16Hd5GdkU5JbmJqeCc/gZYZQU1257f6uy+eXVjc4cv90tV7t5KfnEJEnEYlKeG4X/So7zhrLt+F70iDClpRSIIhEObLpjOJwB+fgGYYQnhTDFIjwzhxivQXfGygxt9w6wCKM0/MSdTZai8/n1Hza1GLT9Tq+TiPvtyT7OVKrZyFAoFI/HQwqTo+ug4VYnO+82nWuzcTiicBg2DYx1v5iFszBG+PkQHte16nav82Vj4uanmwDCYteEHgqKT+dVolxZ++H5O2Zt4ZHWopYWv4JMpTeJIEg/y7+leCj4wJi4N9gHKiaLIxIJhcKFAG88HBu7/2YWe8IFDozv8yHMQy/3+c6gs62mrek9JE45efTjk4ARzeUR1mKDNfuaTrVVLZlj2eWwIvnhTmEVR9rtpCamc1QUKkc27GStNMaWK5LJGJR5a48nElV/34Oz8H8bazgmg3ASreJiTcxRsMp869M1SEQ8cWfTORxhuV5PZ5cC/PK94ROXjDeOdDmdptR6k9xqudPpnN9suPmXlcAPyLJtK2wiX6A0CzY+vNQQK/zVMowwxjc1hP0WRXHxrl0dN1a1fXxoM0B+2neXsi4bRVF6l0+FNMb25V/drTI3NAYXX/FLUkAYERwMltWcHd6JlANbGce1patcdVz4rOlS1IsQvooRxmIiFSFBaDSsxyAxDQUXmc2nvlqPLgpnJS8VqjhACXJzXZU+MQvX9ms7Tp9UrlqgGSoi2Kp4DTFJg40tn3d/0R6cZ6y584+vATLE5WBbwUUPSR3AxuFE4nrrIiVGeAK+OBNPGmGSlDqdUoQYOwl8sfcn2sTAX+tp9iPUUxR7zk56bmnlDAGXw0RYitft3nG3TblkdgFhtfIkkke9HU/jeHzALUlaraZ+86XefTOgWkxnU9wVpTahKxvJ7OGzia6u9q3GWxjhCUICI/wcWZjdciCSiiJkjTUeNPS/jhZbYoam0yA9PV0kqvRVjo/vZA+eYDaf2//nZkNzh6NIU2D3k0452/T842dPJO0LhT1uUei8ZTWjOzYhSDng8VACQVpWIJAHazecTcSc8vbXjDgLY1MtRUdiQu0N+ZKDmKmM9rKFxOKFAT1w2RXddydGcfR0FmtW1B/oHDipNS/QBRfHJY1SNsWGQk/xgxWkwqJwBHuM2t5Dr6J7I+YmC5T1rgDSxGvOnzV2OEJyHUIYL+ewDk4N4ccqACViSYkuqGk23N6wfCWA7396MhF21QGArANbBrrNzQs6unRX/H5L6CkFQNKQv8XOa/c6LxpH7+0GqGMn2iKC9XqVrxo9DktHazqCkjhGGGM8JVl4nGiTt0Opvb/nj5DFGsMUTDgImKNSyXwRBLGt9t3fjGoLH1ivXLEU/4e9849t6rri+PHjyT+S2I5piJ+9ekpIHjZgcPwiY16N83P2bFMTOyovbDFuLVSkVUgkcX+MeBusRSusY1mWqdqSkmzdClIpUXEqoBmEjqRIGSHbgC4CQiFtgcLIWrZ2QKFo7zmJshGHxo6T/nPuX1EcvytdfXLe99x77vnWWie/H0oRra257u5jXeznh34sFBNxc+R8CC7lH0RrYc8TNxl7gdeCURjxTSnC7e6Oa2zvFzvz+aCp9NBZ4ysqNpN0lT9C8z9uPNj42zOMkZcTJhGR6yAmC8TE8hW+tj6GeWd/S8wuRlsmFkzFda4ACZuO32Q7ovoeiQQRRoxTh7BIUTns9C1kjY/+bq+gXLmqceNOwdOej8QuTqA4//n3vxyorlnU53yxv9U2yd0k9crutmPVzMBl/lmu7CpdVsx3jtZxdQDXj/cyfW05Xi8ijOlcShGW2FptoqCvi2n44tRJLQBXVTr25TGfItrv57IzAX6973tX2eqiClv/XCsRryqe6Ld3f1rN3DrfApqARzgqERDmdTAnhXWHekMLfDmUxWJAhO9HGPeFp4GwRKT3eonaufaOeuPAE78BCLjM41pYFfNenCc1y6QeFcjDew787aqx8BG306pQxJpYicbsDgQ/cQUx19nHNnz5eDlAuFgs+H6KxXKZSlelhXVbepln9XqvhR+I8P8RjAhPG2G9nrDltjsNXeyuC69vBMgQTAXkgoTlw2i6mCdYvkomm8Np+Oe1PPnJhlfy2ObFwSH7cptjvAMQJVluuzHUlMfcevtD/u+ytWllZUIYl5eVVUVIOMkT/IjP2tPDB2GLAhG+D2Ec00E41hCQINTqpcHdbGjg+F4+D/P7PXKZWdgh5hEWpwtHd/yjSl3ZQnXkh69uPtfQ/NRC0dIbw5Veoaxd1OQWvDXa+8/WNF84UAbKMD9lGY+wwHCaklNBy/mB0LKgVeIlCF5HIMI4Uoow/2KPWSh7vVHnfCMz2LgO5kQ4HmHzxOuZMo/QWXXH0c2fG9mibTkGiZX/Wi1BGdSdEnd3CXP2h0IVcmx/WSwWx+S0cq0LtjdeZT51W9Wj6ptAhHGkEuGxVMyrj3a7O+qZ3s2H783jsiCeYaeKz+xogLrrpy7fiVXFO0cMDxytw0PHlrCDB1bz+GZryBjCwjE1qeJccK+xN1TkM41e7keEcVNtZhCWSPT6be4290PsrivPtABHyuI4CqTTOj8XEOTE1p1v3O6qqS4yBZ2U2tGzZu5T7H9eXg9QGuZcLtVYOkjTHA0ZjedCJcGoaPRY0IAIx9mRQEU8fYRFRKej1rKiKeg8EnptNQRocxyE5WZVltmszcjn4Tv55uVbHxU+3NfhdhcUdCxiB04LfU78OjrWNpMP4sK5iMsF5QfOhe62Rb1eKyIcN5vj6UWAU4Owo9Jhy13ebs87++52iNDmOEJCNjpGZHL5S6cHC5n6Fb6h3UcKX/srnweCuZQeCcEkj3CVn9OCciefyXV3U7VjtRmIcJxNNVyGlAiJWsHEq7NAYbx9MQMiqpiavf9xPLri9PR0mdnFa1xQrT78lytnjUdY48Dpp12gytaK08lYlYWK/w8AOlsJ5O/PheqDUcrmIEZP9BBhlMEzhHDsprK3Rz+fefk66PwkpE/oYU3GttnmzZsn51WCP5D/HMCOUz/9w81/3N63HSDgF7oNjjjT0LRUrvJw8NzRz0IPO6N6b2XlWF0FIowcz1QUNlA5lLeg4tqZLQAanYoPthM3JEYRFuIxScrkQqF82aU3PubDdrZgKJeVlaUym4VN5Ky0Yo8LlPvvhJaZTF4vYbMhwg9K53AZUqGFbRI7pX7lTM3gToBwFR2vad99HuCy2NLLV+/JB9BKBeksVMzHPiorXuvSwP7vs981mUZNlVALT6qFMQqnCGELRSleLCnccFAo9pliA2tpRoxDpXJswlGX8PRIBGD9idCiYEGsnGK8IggRjiMiEOGUCAmLxUBRa+rrn7knTePoqZslp4XDxRN+SUeg7Oc/CnUVmJbfr1cQYUR4hhAmCLU9WtFw53kIuzxk3NO5Sd6E/7MxL+RyHo9U7tHApUGmyx6d0AoIEY6nhVENpwJhSafN4Kv/6IOtEE66e3WsHsjjCmdo4fErTLXPaUWEvzoAYBRO1aZaZ6ulLa93yzooJiemblNlGEDl4fj07tI7oXqfT9RZiwjjhtrsIExQekfrcHfNoy8VjywqTScXiklaJ/ge/ITpcvv0xETzGUQYx4wh3Dlsu7vkve0jPVOFFmtJzKcizXRVHRy8wC6JRvVewmZBhHHMmpBQtC9u3v0DgOwRGFUJR2ESaBcnXFY++G+2JuoUrZQQagIRnoogxjVIRTonUgSfZU5clAKX9GyqLC4SAHjhA+Mi+9LlamvcQ0BEeCK+iHBqdiQUvmXMxy8AuJKejTZLXXWw6ZeFR4bXTNbyBxGemM5hFE4JwoTFvu2hs28BlCZvaUiCJh+2bq6u6RzuR4QxCs86ws6ihtv7wTxuXZDgSJfKeBm96VfGPPuQRYEITz0KI8KpQFiktjnrj2w+CJkT2gNOaSISZFqNRgktG6qbK2+IjlEEIjx1hHGkAuHcSmf1mddbwKWVJTGRSgWQlr8Drm9oyMvpd+jdiDBiPNsI17YuWPLtS6DhMpNAmKRpkqzTwro/NzCOoDvH20OgkMB0bpa18FxbybX3NkIgMxkpLLTWjgCcPL0rr/XGiu7uHgdBIcKYzs0qwup2Q3XP2+WQ7VElcbAsl5f6yyH/3V3stvZcgqIeYMeBCGM6NzMIK9qbCv94OAM0ySHsCQRg+/GbxgVL7Ssf6CeDCCPCM4Sw1bCs8LGNIEtLCmFdAOAbh24yFUFCIZI80NkLEcZUbkYQVpgq6s/8E0AjS0+iylLl5yDjUC+z2Kf4Smc6RBjHzCDsLGJPvMkjbE4YYKlUqimHup/xBLtNBkQ42ZQOxzQRHiphLz8JoC1NuMRSqq2TQv75XmZ+0G35am9QRHgivnjxKBVauH3RNxv90lXaxCvdpWESwu8PhBa2UZbcWpEIEU7wHYY91VKBsNW+cMnfn4bAqkxdogiTrjqBYKbCbbd0OjoR4aSiMK7DNBAmLAZqZe3S+q4NmyCQWZrQXQ2ZXE5HAnDv1QFmoclkkUxubYsIow6eKYQJWy6VwyNcePWtjRD2ZCUUg2VpaQEdKBvvMEVBkUJilUhQCyPGs45wbi5FUbUW9hd7+WQuMYJBlunSgPJPt0LLnJKpDkQY8U21kCAMlGlBSfNj+aMuGQkMOlIHym/dChU1mRSIMGL8daVzhEXtXMxe3QewNsF1l0f8ID/6GdPlbFdgFEZ8vy6ERYTD5utjTqyXgiahZ2s1GaUg/eREqKStyUIgwtPiGJcgeYRFFFFZ6btrvLyahzL2lSkeMEs1mnwovjgY+o47arVKEOHp4IsITwdhvbd1uONf/2Xv/GObuq44ft7jyT+S2Ngeil8sJfKLMUmG4yS2POfVmMUBW3ZYILZEAsS4eFtBqjYRJzRT4qbpAHVpuyaqjCg4bayxEVCBiCWUsXQkQCAqg6QaQoIAauaRtgQUQRiEjXVo7yVlpRA77+UH/HOv5D/flXXv5513zvece0/WHiDYuwC53x8hqUoC2HjNX+tqlxYXM2QihBHCL8aRyCj2jK7N/rQR5E4YR5gbwfLSPIbgQUM4ahVSpxHCyIl4gb6w1OSobap7BbQTh++5ECyR2FLdIDo+6C/IyTULcRxHjgQK6V6cImEOlVSMnbwAcu7rKJY5g4Sgsc//akiPj3f0RAjPBF+E8MwQtoY6NP/eDVU27mkNW6mTgMZBv9GhH2+kgRBGFvgFIqy0Wl9trX8bvDwQLnMDHHror/U91QoGIYzG80cYt+So6UtfVEIVR4IZo0GUguDYCX9tr8/MxwtGCKOQbi4QDlja1Ia+rfMnRGFOHz6RSgYMwXQo4hLyJhghPCm+yJ2YgRUesZyv2HEBVFwRliQUAWyp99MlJdZ8fgSP1xJnmhDC3wcY9dqYCcIYphwdyM54DcDL9R4qEcP69Xp/uCcSsttxDOOLsBAhjJyI2bXCa5ZWXD4Ocq+I4DCbWGwLlkLNTh292OfC+CGM4yZ2kBnFxTnVFZu+QAijMRsI41Q0rfyvvwZwTt2oi2AQlhQF4foODa3QW5cIecVyOE5ZLJTJlJFxusXRkz38eQpCGAlrsxLOtd08v5xIABmHXnMEYWO8iG0HDUaXHrcEhJmZPNwInKIYgIXCjIz+lrZvdA8Qwk/gixCePsJm69LyT7dAkljEpV2ize2GzXUGwyoHxluJMDEEYyQpbCD7RwZo/7XbCROtlRDDCOGZICy16sOtdTUswolTIyxWVcLP6rLpn39o5Z3REFJsm/IGLDdS0mUwXK07ulmONg4hPBsIO+jh95tBJU7kgLAqD1afqyjvcZjzhfwRpoQN6vb2fQXZ5cMPT9bA47IihDBCeEaOBBYy/mE/sVIl53D4PgHgwrlbxjsRUimcBsKmTLXauq/J0Hr5tW0AQXcqgfbnW4RRODc9hNkSSeuitTfrgpAs06Zqp5ysErwXu4zpeivJJ4obr2TDMNxj0ft6a/1DXx/Z/gggNTjtrjRIjUAIP+FH6FdpNrF5jZXxERYzn323F5r/csXY6xixkySfdAbDO65UWqOO6jAd7vvty80A7mAwRbUSbQ/CeGYIkySZv2aV7kSjiCgVx3UkBBIxEUyFRz9t1TVEzJ5OPik5Uk0ykVxAYb1zNzx09RdH2TvYkt3uMlECQhjhOyOEcRPpIqnRpZqLb4+f+5TL40wiEJcFQfD6FWOWPoDzqg4WYmSmMJ9SOKrLjftuvNs8H+1JrJAODf4Iq0nFqtp9y0GQIImLMBDa1Peg8PWz/nS9Il/IxwZjQspjyfH5smh6uH75LmYud3Ii2hYUzs2SL5xJOrrorxsB5o03vo8zS9ANv9oz5h+LWhfxy2lgKyyjbQ13s41jb/3xFTYiDAaLkBCBHIlZQthkIn3hoQ3bJ6rY4yAsdjKh3p4VxoE109DSMjOXFBibrv35OsD8UneZtgipwQjjWUEYIzGKyizRDJ9az4RrLMFxrPAygCOXNN84RnniK8Vzo651OuO1N/czU0BeUVGeWIw2BeE7GwjjGEnaR0x3yt/YBUkEC3DsO3xElQDLL/nTSxxKTjIwxg5WRzNHox1dtObexaObAUqTWSFYjBBG4dwsISxUq1tGTDfTdjSDVy6P152APc1x+yo9sKZ/hZoDwt9KwThuVggXvfTD8KWdp5hXINnrlY3/H5sNucKThXPIFvNHmCQ9IyHNZ3sWQlUsGywQMB//vIUAv7+qu1vi8WBqDhKaGsOpQIDCM3PaFzcZBv7592XM1G63aiKTQTBvC9qV7/sRiN5phnMYibeFdG9tSQBnDB9CUMj4yM73AD64Zyhw5VDU1IIwjqldVpPH4+mP+s5r6LGHfzr2CEBS6iwSr5zwIAg5ssLIkZgtRcIaeqnpYBLMi7V8AoGAKE0BOPwvQ5ZekU9iHI8rK00KR+ZArfHs3k8OMdMsTEL7MyW+aImmgzDuSA/f3wOx748Qi+VlzFf/8D3/FR/Hy1dJ3NNiCblcvWl093/eOQaQMB9tDkJ4jhDGlb6luhONACkxv+x52mUAH11jvAgF14IIvKWlPxJJ0+l+cu7lzWwsqEJ7wCmcQ8vAF2HGKaB867p/VwNxrkBReQE29vnTIiUWboc0pMW4Ptqwju6+euOj1WxSL+hciUS0KeM5hPD0EA5YGrL33QaVLObqsTruu33+1kgPRnFBGBeac80d6bW6sw9PHgBYX+VOTZXnIYQ5IIzGdBDu7y/IvnwMkmUxK8+TAI4PGn5QYo0dxj0+hc/mM3ClVOFoqDW0Dr6/GX4MIM/Lk2u1WjnaBITxnCCM949WDJxZDUHZJGZSwPwSKxkbPGi42VPiaaGmLHHHpVJzNLo4rOsa/Hg3W72Z5NSyOtqCMiQDc8EXIcwfYaWpTbPpgwvgtj2DsIBNaTgZO7r1xK1wJILZPYEYgjBOWkkhRUkz1NJRvet8tvFB3zvHmRmSK5NUWrmYGYIFyAojRWJuFIlAfkf55V0gkS1Y8PQzhYUCkMkYgv9Gh3PMwjhtaXFSrcbt9k51T2jE8qNy+v5Xh9hOSCKUveCLMBr8EVYsKkg7Mw+SxAsm6VlLaL0TV2CH9Dge99o0HKc6KYvV58vS6e4f3LgabQnC+DkhLNVXGz9j8xriZ60wEEXJAFv+e6t7iWO8EUxMhDHGBOdj7b7+VlpzeufJ7cyj3vkStOoI3+eAsNKRbjixVQQp4meNcB5b4b67vltTophCTMMoe6C950562PBg75FtzAvhDTrRmiOMn48jYV3bdO49ZukmKfFxBgGO3fCX9/aYp9KDpcoMX+9NQ/cbLMCEtkyGMhkonHtOCOemZ58+BYIE2ySFwowXcf3GLbojEop/+apUiTt8DbWGpr43v2wGkAfd/69HQwNZ4DlGGIt2lf/yS9CqZKlPi16sTLnrqyHa5YhTXclEeFKlQm+tXlcxdG/D4UoArzdYRgBhQ1f0TItihDFvKxwNd31SA6kMwk+nHhgzun3DLWNPT3+LHSPxmFk5M2kl08O0vX4jQEpKaek8kUQAKBmH8J1zhE3s5XyBzraK04fzREUiQvtdCXphImErqgKoOdNNV/uslJ16Wk7DSLZoOFCsbGnp90U6NLqxG4drGL9D7ixKHD8VJ9ciSRhhPMcI4yzCZntW+d7tsF7y5CkKQWGitqwU4MCZLmN11Cyd1H3A8eLOTooa/Y0+q4Ie/sfH+5kHk5KKHpOLAJ4mvghhHgjjGJmRG2i6cuYCLGQl3O+ssIAoSyXgwOdDOpfe/D/2zj+o6fuM4883fI/8JCE0mB82W2KI/JAfJiFiFqKkBS5EAwk7kqoMm7Pt3Th3EuJ5K7jpZOeoq6MWj5vIpOc6vNWVadjU81Q8ZV6ZGKz1jhm8KkXtFKeFKWxn3fb9gFi11cKqkGzP+y/IfZMjD6977v15Pp/P80hZ1JdyMCkDq9Vq32CGqmupoeX8oX4AXoIoBm8T4XJuir3wooBDfyc3AQTRD91l44ptYrje3W6ak/6VTdwpSl2c52MJ2ekZQxrDrUPbGAsBPJGIgwijphBhiu1gsQNt+qP90aTlNS2+Tx9XMcMOq062GLr6fFLhYya+SKlAs6oqtWLx2Z+PXsrg8XiEYLTAqKlDmHKY42qX1J19ARSc0SY+4/Rx5HJYdWhE/1mZZf5XEyykMpzH23I0ht6tN0sA/H7RWBmY1iLCaCamCGEWS6Zy7BjsWta7H8BNP0gwcGjY/ocWfXbAIn1MKS3LUlDQVaXv/DC3kjEQNuu9jYyHPgX1X+GLCE8YYaNK1bHjpW8t+3ADgE38IHs8nbVyb0jzeR8Z6flAa56xNaCQYi+SpvfNrtOH3jlWUgkQI48CrlWrFYsR4G+OMPZDmYSRkCU6itOvpa1lnKz9Hnw6jyc+hieHf+296u1qDuTljZ1wZ7Fl9TLGOpNG7Ynz84J9ziKDd+TojQ3MItCdIOKRasYYwYjwNwEY6Z10RSIrKTvNsQfkQNOjZ3y4HJfLJVLAzNxh7ysvZWRn3WvjzmLX16sSOxw+FqVSzQ3mJWcua/nHy5dJm0C3PXrs0+nRD0GCUVOJMKs1I6dx46v3h8fSfInE43bLubnD+nNNQTX7i3FGxiR2R0eHj2WUUgFncqr+g03vkx6rYjGe5XnqqRhjMGGEs1hZ+YaRTddhxviGmsvDjSkF2HlbH/pZHGN6xxGm2Obi4oPBg1Lj4GAwR6O5c+X068zzbrcEs+5TxxcRngTCUkuGvvdiArjHEfa4YgXAy+1lcvDoIA3q/j39vOI8KTsrP392qF3T0bD/J8yar7LU5ZGM3g9FPc2KBGriCEuzktpSL9R80SkqmifyiGHPbdL6T3p/UNx4B9eCApVlTblpZOOWEgCRQmFXKj0S/guIMGraEJ7fmp0SOhsNMwrvIyywwa9+WPH8YJAlfLg5T6JK5Wyur/NW/WVnzfdI6YJj1TKS8DELo6YxC6cXmRbnknmf409UAty8pR9ypkuFsrEZA2OzbYVSS5lzTlXqpVNv/mIm44FJfzRSP6NpPpph1HQinGz6ZDVHWX0PYY4N4PBib6g1kChLSnpwuLLFwi7KbLx058pHAPaEUpuYScNj9TM81YOaNoQpSm3MTFtrA62b9OuLj7JbBQzBqUdagw4GYbbRaFSrhcyPqlpZa/qsdv2OrcvPiECrtJLOPHz+qIHgcpFgXNJNH8KDySllF8Eea7XruPwo14sA+971VgUCWfNZ5CSaWm02H3Q4VMebnedMqT0rj/WT+Lpx3OEzxhcRnrCRoNKrKt5eDR4OJ4oLWkLw8lPelrn5tTKjmUWSsM8oNR9kfs+pMAwf/ZgBWFzqxmGHzxph3NqYBMJ9dS1rr4M2lhMfrXW5rHCZITgjUCujfGq1cex6nMUonB3SX/rxDdLcxOVyadH6PlOCEd/JLecshtv7omOtOohf6Kr2w4ZP9Y0ZBYzzpVhqs9pIySgq0Hw8Rd9+fv22BOb9No8SLyWjFw4jhC3sBY0ba8DPpWmJazvA+xe8KQXO2lrLKMJGlkOW37erSpP2z5OHVwC4/HK7mMaBnWgkwgVhii2cy64Y3rSZQVgstpcC9F/wtjidiyhyuZ5imdWWgGVXqL29d+VNJgOXVrtI1YKLCKORCB+EpXONhrduCkBQqNXaE6D/6EBdINFB9jEYiFnF5gxnW513uIF05wG7zUbqELSOEcYRFRYIM6Ba1hj+/jpYFbGkFnHg7kBjQaCjg+0zH/SxhJb8viKTfrgh91U/gEcuUsTGSvh8mhbjcg69cDggPPR8MM8RqM2s+iOAXCFnCO6/660rKFvkkMl85uK8uPT6eWmGzk/fXM28i+zFcQsLOXwGYXI1DuP4rPFFhCeKcHLF4l8DCORuBdR8MjCQERAmGUmTKqNRmL1Ao1nc/V0AG9aBEeGwRPhaUO0oO5LacBmAVNP61w0M+DIsFFtdXGxuLXPmpKbeOrn8DQCty8XHuE15RQIXdV/vhZdm+ShnSt2NmbRyM+MiVg6k7uqTqYiJGMyvXWoy3Llyejfzhspqlwet75QWJJDeiSLsy7K0Nd4+DP5qGnZvvdQuc9aqLLKsuLjseWmaq3f3XyfNTdwerQRXb7icC8+KhM+Sf6TunV/CDD/sJi2wC2SMWMGm7JTU0A9yt5OBnaPlM6wCoxcOS4SXlActTlPnoVVgg5qXR0xtTotUmpXeV9SuDx3dcuAMKQQrdDTZysCoIcJhh7COycLlwYzjpjv7GFZLzo6Y5pRJhXHpcecaNedOnVxOhm1VunWkt4kWRw2giQhTI1Eel9S17PuM4S3Z1Gk4EcgzJ9VnL2gf6P3TZRpiql020h+NZhAWI8LTsabDGEwA4aZdacmbOFDTPaI5cdxS3FSWbErt+d1H18lj9vHeENiZZ3rwRYS/3kgsKe8r0t+6CTO7O70LyvLLZEcMptvrSG8IEIgwgOiFwx3hmd/OqWr+3PvXNzbvvWoqatrxyrxrms4L79Uw/PoVGCX0whGA8I1Q+fGhlmOwv8dwoqBpR52+5TfvkQwMsTFYgUBFRBYOZQ4NvX15T49pTbOqSt94au+B7aObyXac14mZODIQzlyQ0/WjtRf03wleMhw5/+fXKgH8M1xKJW7FoRcOc4Tp8a2N53bN/f0HObNm1Xl71u0DEAlsVp1VjJNewgJhPCjxBITF8QsVheSkWvnfgomfDWlMRStfKxEwHljh0hYyJkLiwdPA0wswoRcBfrwkniiOTUyfuZH53G/T0zSanoadB5iX/QKFbuxiJx+7BU87wxiDJ8njiiqUKxmEF1TNutYYenf9TwEUCQrEFpdzkaKFHk6hTUtv/jjHYKg7v36biIQLaxCIbyQZCU6hXUxv7/63962TG94AEPs5PE4MBgYxjhTx43VgE8OK7p6GiysAZpSW2rhcdF+Ib+SI9GMnCJ/esgrkbrfHiiYCMY440RIJV7D5RQClx07jiXbEN9LEFSuVUWRSp62SXK6XYA0NFWEE67RKLYencLttsYoYLo07GeGZiDETP8lH0Ix70BEHMXotA89EhCO+iPBkiMYQIMIoFJoIFAqFwkyMQoUPvogwKpIZxhCg0EigUIgvCoVCoR9GoSIV38hEmCNIeER+hUIREd+FI0pIEDzVv5SjEPnHgiDncSbymODBUH05lIxEiPB0fSHe/921oJhHVjSPW+A8+vr/yP/9P+ydX0hbWRrAT0tpLpI/Ow1U7iUve5XLmKxsWkLsXNJkB7ukdAt5MB1yE0tkQwTTlDreGkQSo53EkEQXDZrq1kL+GBpNRIVkxdqCFkokhaluaumwOzL40JmHpX3wad723JtEk7a2DmMZ4/S81J7/5zu/853vnPPpPXI+ElW/vxPq/hE+iqKp1KcN2OW+Ye22tjQE0hnzuJtJpbmHu+93olbrypWDEjyz63jjfl8AymB7427CBAAXe3sroqFl8Nl47gEjtI1AarypY2f23anAhrY8BKxzdyqEjArVwlUAxH+y1FjElt1QoxvJOsK3M4mvAMCqDnHXO1pD3ZaehRsHhYg3/jrtcJ5qt1iEhu5QOP2D+229xExyonXREVw1QJmJ25deOnIoj8mFgRPmrS8MZaK0yGpki6bKQLhSnS1hl5uyHkLH4e8GDoHLbSS1PN9qOsxdR0HiSZeigXRmAPOVpF8vCNdC0Cay4QSUhYLTIJHjPz8wY2/Tx23qHdVrbERBWiLK18eqAph13Iqfl/JLg1Spm64ghCvS4oUIt+hsDaRoNyhJSqbhSyamrllzXwJEdXgRfjZ1TEoFZwD49ad+aDKlejw2UpaXgUxO4tWniEDmUhl+CA80D892cWx4MSMp1vsSrBxVAJvZkPMlVIkoRWS7fN706br14yMsW8qmOnfCQNJqVRsonCQnYvYxyAdySLveuNbfbRlaORBbkwYg/J3+/rIj/AqKIPLK4XwuU5Dk1s2y5SEAXru6Ti6r/jGYjjCyioSDzmnXLsIyScDeWRr+HrnZ8Qmzj49wfWC8JO6EK5Oxz86qGwipyOYzH9pzKgJuDAcCm252FAeAcO9kbCRqLhhPY8bF59Uem8g+uDt8uNXeWZGKdVK1c9hfANNrzGT62CwCgBmdenyx+RNVvwHC4uvGi2VwYKDx1tMegtDhRHaMMfMOaRDQ9AG9HKAADD/NNO4MFeGd9i//UUEsr7Fp+SWDoNGhc4pTsQUTVnrDhhQ0NJrbEmkWvZV+sVahCPubAS0ohJNsypdXjGFC6cEbHo9dOty2HHJAlSQS7O+kVgkEKpTR62j0BX4ez54pIgzN5dy6hr+65WcVLcrICi1dBOhaSIbPewUIV1ASkArCt5IRNtK7qhbBMIyuhSC7wh5SJz+eNTHb7KGUOre2lkYOcCHQdPG5GIPqvcOn5Ii3rwAeG8fDgLfl2/N1oRwAtVy0kA8RFF+YBYCOXpfhkc+Qyjy9VfaNRDnCRTyqQPOAxuahOHMw2+/gtbmq3DEEKt3h1QZZIH4pb2sLwGB0ljp+eQVii7zzToMejsnw26CqgmWAHCWE2VV5xc7BCWIkfojN4Y8WVAAYg1Jh2y00P3guMIe+paR73pHRoDY1S+EXKna9I0cOYciwALic0s+lE5tw69zL5wpl3LXy/+QNQ0SFXmX93QTvcHeDRgq36A5X5keEXC3aBAjGOoFdRUtdwKpU+cjyL4TyaKaeN1tQFVso6wCCoXnnMvq9PmhlooknpeI2I4swD/7/B49cGjLvZVXRoKN3Uom/BqoK3bGOIMKseZfrl/P1DtOHthlk59Betfe+xNvbxWu3/LvSyyJ3AeS9nbpXCzzkF++XcCDjLVJxIK+FGWeSAZ1odnrwPQg/GVKScwBFKhZh5MghDBm+6PsrR76eQ/Y78wjyHlT24QmGlP7p9x2ET+4XvzdWyUlk5wfeLz25MAhDLbw1fin/fAz8W1Lx9tieHbgKOpKrpHwOVOinpJEjqYWZI83askIymszZ2zbYz8S9uW4vXQhsBDZpcLtteyQKQAcA3pm7joBWG8j6zc1sDYWAMWWbm5qmA9ta7UbbK5eb+XJ4cam4HG3adILRcM3jvjZY/PFaUzP74gDok4BOzGRh5LZjwdgIimpQBbzp69qWzK4OZ6trmkltb7MOd8Y4nTfiUdiLi/HWcGBDu63tbU3sa64YaIPSdu0gq/dhzZsE5y+PwZ63M7Wg0XqPP/mPSkX4iGphmGzOEoQyNtd2tvufYRjBKx/0GffIF4Z7YRXw/an9u2cw6s7DAWsINwgt7eeCyWnzzjmQkc1g/PViMrlk6LZYxDVD2fAjU/HZgAYzxFlhDzw29sEsDTVCYbsm5Eg1McVhBa5hn/V4jdBiqIs5B4yn8/zxuODK7FnLf+4W22AUrfvhq+TIpKFbaLG0rzodm+PQhuXBNrz/sjuCHoNYWC+8vOXrzOzjURqiurIq1YTZn2DdX2UNRM8KsygRTMBlgqpsxmvBvwMyaewWqKWZREGleRUfUS2MgJPeeRshfDE2PyElreYT5blQgMxt4bYkRM1Oci73ApAYHlLiOMFXKBo4NvkEc5exU1df1CmVyeU2PkzlNyhI+eR80deXC25eo1bXzcD8YFQvJzgKBYcjwSes8TNMYqZlisLZSL5Eopx8VHjzFQBTQO/5sXX3gbkx/v2kHseZFvh8PiHH77VgEC1I9oparMElTLyCIERky4efHGELjdl6zfocq4ExcGZsRC/JNu1drhbceVHv6Y9X8oXaEdTCzPTdxjXUkrF1S0GF5miAls8alpywUYxbgF1GdPWCwbSHwEV6kUwkIm0SwuYJGlnlyFTelJ3SceSUDKbJRDKSAb3rpStfIURYLZoIfeP6SW2jRDvFJ9Yfwg68jq0q5DImkiJxRTXuieTrZBAW63oKCMMWmjtHp3QaOcm2AHNT1H0fxtg2mZdqgnFCk+VbFtl8H0AYwVBYLDVLkXZvwQEC9Qf1Nsb3t7bUkuCiJcL4X8zQ9TJRIlwa+6SFf3OEEQHwj55TXntkfoDL1U8ayy1BaML2C6WTUFEBu0jSNW+a19XX9fsWOzsjkfCy52/n8fs+FwuLACAzW+0GTY/18UAEJnf6tiYlEnJiOK9RGYQtU+utm/cNq85wivEACw1xFLZ7yQTIhZT6r2OOV7DYYrKfkCjEwThrgECE28TSAsKwEtO8WkiJiP4NX4TxIoukrdb/WgWwx+7w13K9J+hjqoikHMEhUdL1boQL13GsAe+N9is16zPFS+Ha6RglSTUy1nZi5kI6PRBOz7luwF5gO4bHN7Huqdhje5oJA3cT7nLEK0MLV54e/iDCKhBfn5Cpp723q211/S7ALRtz49qSuOuZi0XYNvosqq5/HlzI6yHvWnao+pjieQphymAAyYx4Zp2puCs/qW5/79IpxbHl/D7NICzuio3MUtfCftZPxpvrXYLFh743j9R9rrYumNlSfdE2Kf/Pl592wBK8MoQx4N6c0us8oxtRY+EK8PTMzMAiHFXH5nO5YtThd+ejzf7eF2nXu9zbdmfvD4OmmwM/k3gg11x4eQaNLV0kfgGeX6887LX+n72zfWljy+P42UsxIeSBW0E3Q17NSqDJZpnCMCmzabwlhZFLIS/UkrFeIkiEaxRt0p3NXdQYqxmi5hKlEbM1UJuEdrQSBfvgahcjiFKhtdsqu7AVsfTWF5fti/4De85Mookbr74o29Xt+EbmeeZ8zvd8z+/8ziRiMJCmPy2+mH1n2ztOA0bTOgenk2ZtfJPqnvlws15y6CdDhMXfYD6FCGPA9ZOgY2a+jaUI0h235ZVzCQYCLxiDOxHOIhy844h212ajFl5QsXBFfbF0OIB69BDhnrWGgTCQn8/Z6NtDaU5d2g/LXiUZCYeZJ6MfbLlYiHaiy6LG3S2bdcJgIMcYttKCq8lgTBp42UMY3lR4iKBkZxcTbVhecqRGC74DN+dJTj9rU+yB6hnN5kcetthWEt1pTk9v9GDZ1wKN7sgFCp8GyuoW3Owwy+CiJn5FvJ/oy51JAWIQYXELWs4SBPFy2nZi7KVE72k0EhjofR3VRRdCoYUI6XvRm1ckci1wMuXWlDhe1UEaecdYciYkSnelmKA1+ez3Zl26qR4BDFS1roCU0anRYBqEeajznMzQIiIgIWxkI1u3xfCbBmINbIP39JZyXs2jZh8lkGkQhZdXZeQmrEqKPIQxeO/TixS+OuK8JF0B3kG2Cf8jdEImn98lnQLTio9Z7ykaQfTM1myg5WMwzbRznVtTV3Ni7YF9tVJzcgr0bJitBhOaNtfMklbu+mqnSyp4lRw4+d+WGgzN6K+UZUnOfiG9tgL+V3Ok/l+6cypRaSHCAdCzaXC8d+4Pjsmh3GZYK/P6Nur0Q4Qd9PWFRqDySO9BDh3lQJDA3d19UpcNDU94vbm8LjmEKNGlFoVOIyHMm+0NIdgHyh7uBT2LZrXDaN2BGHiku1MqQczP05EFqPV5CEPgQ/1/cehfDsA995PIKiu9EJ/wktuw+aYP5PpWmFapOCykMPJXcfZmKUuNtS440Q1rc9tq0yZHMBbw0+3m1prO5eXlzo+tUfrXJN5ZncX86v3xlmfL0nJrOJjEcQtLPDgx+SWntTtXogC13UxddKEXtLWynDWzHxnG0ABsed2OU4sQ7SD1Dn3QBTzyvEo9OSOwq/6cgcYKYv7wcFe/RXdnvQweLiJMyJKJ/bEQdPgbgSLMKEMjtxJeO5SJkqsjLqDMQ9gLvNOtrCWZ+Q/JgweEE9DswHqE5ZdWMYNaBm7/9ByF41DkLTK39Li3Qrmv0KNpA78Y79CVE8HpSTFh2NX0jDfyHD0uzZ0Dnsb9eQNl99fn0haCMPKwQ6o8MSp8WhGekxBWbnVRVHa2rlSqYChpMS3Xi3kRHaQFn8/Y8oJuKLCaEOiv3lfnuFLt2xMM08qVgUGLLrhUn1VhVn92PC9QgA5fitIWWctK/qCgApoX8nrXjQKEYTMPO1t6FP04kIoEpd8Wd+tQ9K7iqOKBKuz/B6lDUT8rxTHzbvezWK72KMHb9LXI7i5DpTI/lEn7ny9rXOq6d5FLDkkjNAWtcFX97SeDSbWa8mVCX74j8ZmNBPLCTPckwKb8pBFF+iVKVZXAs2w1+1D5yUWE2dbqMwXpNBrgjNK47wbsUu2zi9LFcg35ULkuPYECdQhhK67eLhBRBRhgaE42Ec5P/vGCJ26W43uANw/hCtCbOlcebSqmdxqwIhgckTg8X8UvfymuEngfSXM67z68VeP782/aBf8EfO4S0VHfnzdE06tfvYwjqYUO5Tt0rbJ4iiTssJ2R7hCuzi7itO9QJkmojYtNJ8NKnNq4MAZctwQdM9sH5KFxWu8bzOmSApyP7ZiIlilpinMHqW4ebkSuNF/W3jJWiniXQ3g/i63MY/O03Xg6bqE3u8N7CDt+LEDYC1xu1i7bLlDWCnDTzeKWHwsQrvz6FVMn7MKWQl5EW3/+nsK5jWkbAEfIzL5FtlXfH2pJ+ezsle6bEoCXBjZJgmNT63CjRvIhCi28261yGZV+HJZkOK/qK7RKD8DeRKmz9sETom6nF+HYCE8yqDUE8X+ebf44mS0PLQhnUnWOrUZYxBLChhogjubm48awOLEH5p5EB16tLzW9ieK8zBjZQ5gsT94oQLgC/OAmcfPTAm2FKzdJXF2IMGiciBrmh0LFnkELytaDlIxLPW5DuZzy40qS3OP08xbZ83EU/ACqM85NncN8r78qv0JJyWyU70FtsbADrLGhjWYZ3RkAJ2Imx6mbeJR9LA14JOgpFBCG/ZcGwRQcKJPKwwsm/Twd7UFpLyLC+ufjB3pTWYQfSQwizQqPxuY2amqGg6lUcJ6j9fkI68YWXQW0eiSEC6XZA2ohwrIDCAcGo6b0ug0Uzd4E3kzSSgvz38/FqsSoyOFlpajUaDSVGonSM6PjVy7qUtPIrGtA9bzOrB4ZKHhEeKKriYuUfdNVWHezC2x8Eik9u+HEgAZ8WT4PwiVw7WXaTrqnoBtUlC056txrjRJn0OhGWGEX6Q9S1w6d8crcYQhrpNGHxqcdzzqZUkN7+zWT6ZqJtOL5CNfxd1wHBRchDG2v6igVhpXLkBq4WlRI4HP1PR42NhuuMZ3/ahqtRwb/KMERPTsAvQ1GivdPijc4mib1xpnQgS9UecGUW8/+bqBo1EEBSkb7Oevi0oHUki9K/F9EGLag4S29/pvUz5AdL3jH0PeST8TkQwjkrHAtFUdfXpBLCCOffBjCqLfbuxWxUhSnVzsEnyD4ogwjyLg8hMeOg7CnKML3/bwhGNvPcD84ZgFWdsxRQs/SyYb1Rvkxf/9ZXgF6onYr70SzV8DbedLIZeALO4DwzRGeFeJVqiKlj/L85jgqOVNxIoY3TqeRQPnCr/X4agMKG3hB7YMo6diGXfcSNLHsFt8+XIvk9RgIw/Wv/IKao0nSgN8ZnNh6MzH9NjBnYZOfCmHT4QjDtVVtU4MRkqUIITKSCIHjqaIS9L1mdI6JNnTZtnSpkftw0BGIu9QdirD82z/g1GqD58SM0J0+hOGbf9xlwYMJr+gH6+NBgwMl+SJbMLRqJsZFiTsaYchgtf8Cq2N2HszevesMNPb1NV4CYMlCfhqEV6AK/33lzGFCIk4YCWzPdb4/d013PT0O9zxO/6oShBOpOmFtFF32by/tuH27MOQiIrwWqRO2i348Ak0ZvYzjY50eUPbFSHwmhDXgzAOrTFfjEhN1VGCyxkSMOEURC/Ub8J0m8d8jEVZiINDAs+bNF69G8zaHJso/lQq3rEIv7D28BLAKFNirHtrY9Fnq9Ldix0IYA56moIFvqBZnFa1doe3FVBghXFyFJYQp3wlR4VM5tIGB+ldBWq3r/1p8OFgOD+/JxmbRf9jABkk9lD7Jd7QKV4K42k4zcQ84n/fCQlufykj0rvkM6aXwkWBWtU3vOoycerz3OHEuDHgHIMKvXWLe3VCKtGcOzrH+RYRhT8KzZaciL04EwvLT6IVVNjC5+2/2ri+krSyNnyml3g35M6Og5HL35SoXmlTIsOFqL5puaSGlFPKglqgtFkRBTXAm2b10i6mNYxL8t8QQraKC8Q/GPyWV0bVuLGhAIvrQFTvBl0qxTDsPw/gw7ELf9px78/cmNu5il00m38tMj+fck3Pu7373u9/5vt83zqpQUC+XRQnA830pYUGf6JK9h7q5AB/0kxbCGGjsoGtDG8i5LJLjIhTYBy+42H9eEK55o60LrTSmycRAl7leteGnyY+DZzGHw1r4VTdal7z5WM32L0qEn3PW/fE6/V9TeiQghK0elvmwUJgpYRLZZkjAe3xj4SGly1/oiRzdiBrXmbrjZgjUGmPr/L43fCqZDsKIVKSMOG7AQAke5+saXZIy5wPhG4GHhGO/CXyaYE2Ci0sAsC3NqTTunjNoHRwMBGYV8xtWtBdfNxkUSndQEIVRAka1NOt7FztDT9zAoJulJyfEGeFUy87TucDjfGX5ZowmGhkEjHPDBAaafd844ZtbAs4G4S5DUV21F4+bBN7UwKyUPBenmhn8GKJJ3VNw6Sx5yYEZ+Dh5b6cPXBCDxj0n4VhBB5AScM9DUB/WErQ3Bi5dnHAQ2ge2lJYC3LW1DxTR6cUyI0giy2xh7FoJuBiwF6nCMevhRlA1PN9q/xlYn7QVh6rC0E4P4a8ghAuqvfI4+kwxuLetSTja+O8hbALt73dYJcqXTnxjc0famBxPgFXQUKlwPZMLFywXGseYCfyoZTUOlIKKGNamZ1Rqd2M8TQRKan2gUs9uoRgJTFhvEi7RZqClit3C07x9OVv4M0EYHU0hKNpWZseVjPboXqwaiwg0roSK2/pAl6/IYWkPI/YMWjj4XgoNCTz8psdEMhMAE7NMHnUuEC4E5mlfrWrH04OC4yMR75gsmkFsll/DIrACVa9Vdb8+w5M1o9ksiwb04zJoc9T0sqRq8zvAM6pULVXWtS2YgSkMYhGi514YUtUbI6n5smhEP3wixGZwb0WrVvlPMohUMbMpssUiTvDwdvf8aeMOpSSH1hfj7gAGbjX46p1Pek7UpZP/iJybpoXwJdC0q2Rm1lG6jwgX8Zdr2C9XnpMWloOLVouuggmtcEl2ErSMqE4dsKLqYyg7Kdz4fLOy/tek5LkBG++7hZ1EYZrWsfWPenVojQuCht8B5qcOUoVoK7gZuC6Fz41qit39Ev3uG40DvLEVHd+z9nicVC3XZE68cEbbwoUA0c9gkRRWU9PgLJmvZ4bgDYhnNBOD9k6N4ziwrlO4RyLEKGkhLAI9yxVKpq0BSCThKbDnkyq27JwgLJIhYOZJdfN73XwiI5RLcFSjFQOLa6+av4y0ooAJS22ewiL4LMNAcAN9pUpAbBOa9pzSSkWYkAotrXs///v8zQl5+GIA3D4IMRUU+sZDyn1tuiY2Hp3A9+9IK+c+dGVKjE9GQ7jUVRXXVjM6umAw+vNJstS/ZUs0kswosZgaf2+g5o5iZFNp/cIy8LePF75gfQvW29xfbF3b/vHLFk/F+XgkEMZuBT7qKpTayfXRcA70dVvwjWEFB4sLPu32QbCda/zKdlDtIJX2CYFTTQZehkKG9WfWsXBD1cGyfX6HJVwNkZ44uHgQqtfvOC0NfCdr86qPIpUzzwH3uTay0Xa43BCpu2NrGPxhvlxfp10byEH4fwBhwr968ykv8L8ei2XmMkHUljtbbpoEqOTqAxK0P5Q/2RdVZOlP52TA9qqcURH+3l/QRCsbBuoq2ek9oc7ngBn+KjNU9I/nWKXmoaVjilvG0ap75l9uGahZcPzh22PDKt/oGWbVtGPrnkR4RNHMFOvuGHr7uU04mVoadtYxBO3quy6KPb7Yn7W1LKHr7IczPN3q3R9S0+WzCz0ARztg9aiLnT+5V07QFbZWOz9cZkhi6GgMiH6XMRDOWI8EfKPTmpjQNK2kLsw7fE9GkitrQ3W3yhTpa8ve2GKMkhyEqU+F+cjAiEsD7QaaZvg59Oxh8PcL8UcbRCoI16YOtozEC7uiVChw5I1Bu14ppeDP59fBMOzOBg5qBrV0GcmS4TayKE+71C0kAYZaeEhTGTeWJlnpPGX0xikmaA5/taVnVVKS6wW7KCnV5lohWjT8BYseks0jSTo6ntLnzU+ZMkazYZlLyFn12lHhkFIxYZlaUlH+YDo4ltLdDyYe56mIvObY+xEtfp0p+/gkGcJtJOVAEL4GsKqlOXhfKyooqoKsUztfvZBdH1TRvvUwhEOa+f0kCPtpSi+EcA1qjECYiNICogNw7wOdgqUptJgiimGI0sk+DIwddKpqNVQZtzaSVitmp5NrDYiAdXlHQWrgw4ukiGVoBf1T4N1twfLHTibn4BMOZyhS0qSC3vWW8OoLYHfXHxE6hqrgLwChXODc6LoBcvL5tTBXRjwqBQqFdtht8TytQrufTJULG0Ze68nxeLghCHt4ctYECJvAO/ZqcetblNgB/9k95Z6806r4o6LU7+4NLCKmqPqr/9wb4OI4n1FXCh6/ECRofJd3pfjRS1CSYEgslnGN9zGenHUnQs6KvAAjN3c7N3X1Ba3Eo1a72/1LVw9Uz43Bo223qpgoKHjUOjPs7ng5kIKeBCtcfOsxuO1zrQo4+hvqB8P2lvduPKc85wwEd7s63Mff1hcQ9ZftndtbI1xuFuekAO9WDO7hv7cWtMLZFf5Od8dbq2B8Tj6PFu4+ctldLRFxGY39fd7RQt7LmXKA7Wi+1JfwlQIhdnPWOLwlOFkwg79UH9pdz7ie2H2o8Cc2Wowuo/2oahHRY5vfGg8Naybezqj2uV5bE76x7oOf4fCWFwkXvQ/aDXwjdg309Ppc7q6ISpWYxagaZ8Bw6Gpx2VvWgtFvVJPVuz0LG40tyweo8RTGydtB77S7xQg34dDQF6xJRU0JZzCNNlsOYZfqtT6ozc3RjFO4yCZvnyW8iUcNiKVVJs4wOGTmAyfBZYmCp8ny9b53lLqahBUw5DxflEBk8oTagRg/V5TeDP5ZFPtfXJJmeFIjnlyaEBGpoZqGgnZczs+c5h5h17hucPTXn+ok57qkytSLbGbmad9MTcIHpxWYkp3yQEK1NKWSzu3ip8RmCfEe14qLUj/vcVuHpRqOn9aYXC4GS/Rf8YcomOAkGU+9ZEzo+0r1SAoultBFhAt1Q4bRvGeuLREm1Y2KWYafuvnIjtguVdqnhdEIMlOqol5YCWzG41ShOVKwix8E/yyP9UyKM+OGi05vxMwJl+eBGFmOGI8dKorw+6ZwxS78dLLUWEUxU4kMF53aSx6eIOkFgeOyuE3MWcH/lyIG+PQmzfR2g4wucpmTrNPEZxYzGHOPk8SUoG5MTrIEvtkP4Usy4J0lHJtdGesIz8mnIJz9dxWTg5p+benQYGNiNcOcZMPN/W1AWAZeOi+oQw0XcwDOSghntSGBiU0mE6Jookjt63Ygzt3ynC2ciXKraa+tUj0cBDmauyyFcDYvrinY2N498X6Ipu4s5BxqWW1MZKWYAegt8/tD2h1Hra7D9ptwH+Zs4aySEgCqr2jUGoaoz/dYY9mgOcmyd20mlk48sxbefsSyDOUP9doyIqM8J/+5Es5qj5oYgDc7FV/8u727yWkYBsIwPEsvkNhzIc7ASTgDGyR23AFxBO6GqsaJ80ORKFE77vOqStvYjt3JJ+ebJk2fHt/eX+xsOs55iPn4fH39OlxBHs4s96vejifi8aM933MRHe/jrr3Ew+Hf1O5cQEjCuQ80PAQJA9ctYSJG6nTOOSukFnGQMEgYuKiEOWEkT+fMwmAkgMsaCVYCeX1E39dI4Ea8MNCBHwYye2FhQGojQcIgYUA6B0jncLPyJWHkljAzAekcQMIACeNWJQyQMcBIAH+fgUkYmTUsBABgJgbOkK+ffyJzNueeaujARJAwshsJYUBiJ2EWRn4jAQAAcJYfBnKnc/WpLDK845vjvQMPjzjeRbDEsBjOjNR1y5MkQ5W2m3GLU8dR+y9jSVt58bVJ3WZTq11Z6gjnTr9tU2YvZnXa4dbyMg10sRg+fEw9blz5VwR49wD/R9p3pRN52b1ZWTcoe/QpwKdaj0IfbtU6LuvTip/WL+vEou7sdWxtKMr0N2KrovhtNLFdFidaxclKq+FHNA3bmEVstW3WCvB+Af4Gi6csb9559tAAAAAASUVORK5CYII=;" vertex="1" parent="2b4e8129b02d487f-2">
          <mxGeometry x="391" y="27" width="119.94" height="68.51" as="geometry" />
        </mxCell>
        <mxCell id="z2upylLzCHn0Cnhui9A_-14" value="Deploy changes to Development" style="html=1;verticalAlign=bottom;labelBackgroundColor=none;endArrow=open;endFill=0;dashed=1;rounded=0;movable=0;" edge="1" parent="2b4e8129b02d487f-2">
          <mxGeometry width="160" relative="1" as="geometry">
            <mxPoint x="154" y="59" as="sourcePoint" />
            <mxPoint x="379" y="59" as="targetPoint" />
          </mxGeometry>
        </mxCell>
        <mxCell id="z2upylLzCHn0Cnhui9A_-16" value="Push changes to remote branch" style="html=1;verticalAlign=bottom;labelBackgroundColor=none;endArrow=open;endFill=0;dashed=1;rounded=0;movable=1;fixDash=0;orthogonalLoop=0;" edge="1" parent="2b4e8129b02d487f-2">
          <mxGeometry x="-0.0009" width="160" relative="1" as="geometry">
            <mxPoint x="97" y="139" as="sourcePoint" />
            <mxPoint x="389" y="219" as="targetPoint" />
            <Array as="points">
              <mxPoint x="97" y="221" />
            </Array>
            <mxPoint as="offset" />
          </mxGeometry>
        </mxCell>
        <mxCell id="2b4e8129b02d487f-3" value="Build Pipeline" style="swimlane;html=1;startSize=20;horizontal=0;" parent="2b4e8129b02d487f-1" vertex="1">
          <mxGeometry y="300" width="554" height="150" as="geometry" />
        </mxCell>
        <mxCell id="z2upylLzCHn0Cnhui9A_-17" value="Build" style="image;sketch=0;aspect=fixed;html=1;points=[];align=center;fontSize=12;image=img/lib/mscae/Azure_Pipelines.svg;" vertex="1" parent="2b4e8129b02d487f-3">
          <mxGeometry x="55" y="41" width="50" height="50" as="geometry" />
        </mxCell>
        <mxCell id="z2upylLzCHn0Cnhui9A_-18" value="" style="shape=rect;strokeColor=none;fillColor=#ffffff;gradientColor=none;shadow=0;" vertex="1" parent="2b4e8129b02d487f-3">
          <mxGeometry x="115" y="14" width="175" height="120" as="geometry" />
        </mxCell>
        <mxCell id="z2upylLzCHn0Cnhui9A_-19" value="Build Project" style="shape=rect;strokeColor=none;fontSize=10;fontColor=#000000;resizeWidth=1;align=left;spacingLeft=25;spacingTop=2;whiteSpace=wrap;html=1;" vertex="1" parent="z2upylLzCHn0Cnhui9A_-18">
          <mxGeometry width="175" height="20" relative="1" as="geometry" />
        </mxCell>
        <mxCell id="z2upylLzCHn0Cnhui9A_-20" value="" style="shape=rect;rounded=1;rSize=3;strokeColor=none;fillColor=#FF9501;" vertex="1" parent="z2upylLzCHn0Cnhui9A_-19">
          <mxGeometry y="0.5" width="15" height="15" relative="1" as="geometry">
            <mxPoint x="5" y="-7.5" as="offset" />
          </mxGeometry>
        </mxCell>
        <mxCell id="z2upylLzCHn0Cnhui9A_-21" value="" style="shape=mxgraph.ios7.misc.right;strokeColor=#666666;" vertex="1" parent="z2upylLzCHn0Cnhui9A_-19">
          <mxGeometry x="1" y="0.5" width="5" height="10" relative="1" as="geometry">
            <mxPoint x="-15" y="-5" as="offset" />
          </mxGeometry>
        </mxCell>
        <mxCell id="z2upylLzCHn0Cnhui9A_-22" value="Run Tests" style="shape=rect;strokeColor=none;fontSize=10;fontColor=#000000;resizeWidth=1;align=left;spacingLeft=25;spacingTop=2;whiteSpace=wrap;html=1;" vertex="1" parent="z2upylLzCHn0Cnhui9A_-18">
          <mxGeometry width="175" height="20" relative="1" as="geometry">
            <mxPoint y="20" as="offset" />
          </mxGeometry>
        </mxCell>
        <mxCell id="z2upylLzCHn0Cnhui9A_-23" value="" style="shape=rect;rounded=1;rSize=3;strokeColor=none;fillColor=#FF3B2F;" vertex="1" parent="z2upylLzCHn0Cnhui9A_-22">
          <mxGeometry y="0.5" width="15" height="15" relative="1" as="geometry">
            <mxPoint x="5" y="-7.5" as="offset" />
          </mxGeometry>
        </mxCell>
        <mxCell id="z2upylLzCHn0Cnhui9A_-24" value="" style="shape=mxgraph.ios7.misc.right;strokeColor=#666666;" vertex="1" parent="z2upylLzCHn0Cnhui9A_-22">
          <mxGeometry x="1" y="0.5" width="5" height="10" relative="1" as="geometry">
            <mxPoint x="-15" y="-5" as="offset" />
          </mxGeometry>
        </mxCell>
        <mxCell id="z2upylLzCHn0Cnhui9A_-25" value="Set Solution Version" style="shape=rect;strokeColor=none;fontSize=10;fontColor=#000000;resizeWidth=1;align=left;spacingLeft=25;spacingTop=2;whiteSpace=wrap;html=1;" vertex="1" parent="z2upylLzCHn0Cnhui9A_-18">
          <mxGeometry width="175" height="20" relative="1" as="geometry">
            <mxPoint y="40" as="offset" />
          </mxGeometry>
        </mxCell>
        <mxCell id="z2upylLzCHn0Cnhui9A_-26" value="" style="shape=rect;rounded=1;rSize=3;strokeColor=none;fillColor=#4CDA64;" vertex="1" parent="z2upylLzCHn0Cnhui9A_-25">
          <mxGeometry y="0.5" width="15" height="15" relative="1" as="geometry">
            <mxPoint x="5" y="-7.5" as="offset" />
          </mxGeometry>
        </mxCell>
        <mxCell id="z2upylLzCHn0Cnhui9A_-27" value="" style="shape=mxgraph.ios7.misc.right;strokeColor=#666666;" vertex="1" parent="z2upylLzCHn0Cnhui9A_-25">
          <mxGeometry x="1" y="0.5" width="5" height="10" relative="1" as="geometry">
            <mxPoint x="-15" y="-5" as="offset" />
          </mxGeometry>
        </mxCell>
        <mxCell id="z2upylLzCHn0Cnhui9A_-28" value="Publish All Customizations" style="shape=rect;strokeColor=none;fontSize=10;fontColor=#000000;resizeWidth=1;align=left;spacingLeft=25;spacingTop=2;whiteSpace=wrap;html=1;" vertex="1" parent="z2upylLzCHn0Cnhui9A_-18">
          <mxGeometry width="175" height="20" relative="1" as="geometry">
            <mxPoint y="60" as="offset" />
          </mxGeometry>
        </mxCell>
        <mxCell id="z2upylLzCHn0Cnhui9A_-29" value="" style="shape=rect;rounded=1;rSize=3;strokeColor=none;fillColor=#007AFF;" vertex="1" parent="z2upylLzCHn0Cnhui9A_-28">
          <mxGeometry y="0.5" width="15" height="15" relative="1" as="geometry">
            <mxPoint x="5" y="-7.5" as="offset" />
          </mxGeometry>
        </mxCell>
        <mxCell id="z2upylLzCHn0Cnhui9A_-30" value="" style="shape=mxgraph.ios7.misc.right;strokeColor=#666666;" vertex="1" parent="z2upylLzCHn0Cnhui9A_-28">
          <mxGeometry x="1" y="0.5" width="5" height="10" relative="1" as="geometry">
            <mxPoint x="-15" y="-5" as="offset" />
          </mxGeometry>
        </mxCell>
        <mxCell id="z2upylLzCHn0Cnhui9A_-31" value="Export Solution as Managed" style="shape=rect;strokeColor=none;fontSize=10;fontColor=#000000;resizeWidth=1;align=left;spacingLeft=25;spacingTop=2;whiteSpace=wrap;html=1;" vertex="1" parent="z2upylLzCHn0Cnhui9A_-18">
          <mxGeometry width="175" height="20" relative="1" as="geometry">
            <mxPoint y="80" as="offset" />
          </mxGeometry>
        </mxCell>
        <mxCell id="z2upylLzCHn0Cnhui9A_-32" value="" style="shape=rect;rounded=1;rSize=3;strokeColor=none;fillColor=#5855D6;" vertex="1" parent="z2upylLzCHn0Cnhui9A_-31">
          <mxGeometry y="0.5" width="15" height="15" relative="1" as="geometry">
            <mxPoint x="5" y="-7.5" as="offset" />
          </mxGeometry>
        </mxCell>
        <mxCell id="z2upylLzCHn0Cnhui9A_-33" value="" style="shape=mxgraph.ios7.misc.right;strokeColor=#666666;" vertex="1" parent="z2upylLzCHn0Cnhui9A_-31">
          <mxGeometry x="1" y="0.5" width="5" height="10" relative="1" as="geometry">
            <mxPoint x="-15" y="-5" as="offset" />
          </mxGeometry>
        </mxCell>
        <mxCell id="z2upylLzCHn0Cnhui9A_-34" value="Publish Solution as Artifact" style="shape=rect;strokeColor=none;fontSize=10;fontColor=#000000;resizeWidth=1;align=left;spacingLeft=25;spacingTop=2;whiteSpace=wrap;html=1;" vertex="1" parent="z2upylLzCHn0Cnhui9A_-18">
          <mxGeometry width="175" height="20" relative="1" as="geometry">
            <mxPoint y="100" as="offset" />
          </mxGeometry>
        </mxCell>
        <mxCell id="z2upylLzCHn0Cnhui9A_-35" value="" style="shape=rect;rounded=1;rSize=3;strokeColor=none;fillColor=#8F8E94;" vertex="1" parent="z2upylLzCHn0Cnhui9A_-34">
          <mxGeometry y="0.5" width="15" height="15" relative="1" as="geometry">
            <mxPoint x="5" y="-7.5" as="offset" />
          </mxGeometry>
        </mxCell>
        <mxCell id="z2upylLzCHn0Cnhui9A_-36" value="" style="shape=mxgraph.ios7.misc.right;strokeColor=#666666;" vertex="1" parent="z2upylLzCHn0Cnhui9A_-34">
          <mxGeometry x="1" y="0.5" width="5" height="10" relative="1" as="geometry">
            <mxPoint x="-15" y="-5" as="offset" />
          </mxGeometry>
        </mxCell>
        <mxCell id="z2upylLzCHn0Cnhui9A_-37" value="Managed Solution" style="image;sketch=0;aspect=fixed;html=1;points=[];align=center;fontSize=12;image=img/lib/mscae/Azure_Artifacts.svg;" vertex="1" parent="2b4e8129b02d487f-3">
          <mxGeometry x="423" y="54" width="50" height="50" as="geometry" />
        </mxCell>
        <mxCell id="2b4e8129b02d487f-4" value="Lane 3" style="swimlane;html=1;startSize=20;horizontal=0;" parent="2b4e8129b02d487f-1" vertex="1">
          <mxGeometry y="450" width="554" height="150" as="geometry" />
        </mxCell>
      </root>
    </mxGraphModel>
  </diagram>
</mxfile>
